<svg xmlns="http://www.w3.org/2000/svg" width="16" height="16" viewBox="0 0 16 16" fill="none">
  <path d="M10.769 7.25879V4.64074C10.769 4.41983 10.5899 4.24074 10.369 4.24074H8.789V3.78464C8.789 2.79901 7.98999 2 7.00436 2C6.01873 2 5.21972 2.79901 5.21972 3.78464V4.24074H3.1179C2.89698 4.24074 2.7179 4.41983 2.7179 4.64074V7.25879H4.53605C5.48778 7.25879 6.25931 8.03032 6.25931 8.98205C6.25931 9.93377 5.48778 10.7053 4.53605 10.7053H2.7179V12.6C2.7179 12.8209 2.89698 13 3.1179 13H10.369C10.5899 13 10.769 12.8209 10.769 12.6V10.7053H12.4834C13.4351 10.7053 14.2066 9.93377 14.2066 8.98205C14.2066 8.03032 13.4351 7.25879 12.4834 7.25879H10.769Z" stroke="#253453" stroke-opacity="0.9"/>
</svg>