<svg width="33" height="18" viewBox="0 0 33 18" fill="none" xmlns="http://www.w3.org/2000/svg">
<rect y="0.5" width="33" height="17" rx="4" fill="url(#paint0_linear_3960_49453)"/>
<path d="M5.91 12.5V5.1H7.42L9.57 9.04L10.31 10.64H10.36C10.28 9.87 10.17 8.89 10.17 8.05V5.1H11.57V12.5H10.07L7.93 8.54L7.18 6.95H7.13C7.2 7.75 7.31 8.68 7.31 9.53V12.5H5.91ZM13.4002 12.5V5.1H17.9402V6.33H14.8802V8.04H17.4802V9.28H14.8802V11.26H18.0502V12.5H13.4002ZM20.2526 12.5L18.8226 5.1H20.3326L20.9226 8.71C21.0326 9.49 21.1526 10.28 21.2626 11.07H21.3026C21.4526 10.28 21.6126 9.48 21.7726 8.71L22.6326 5.1H23.8926L24.7526 8.71C24.9126 9.47 25.0626 10.27 25.2226 11.07H25.2726C25.3826 10.27 25.4926 9.48 25.6026 8.71L26.1826 5.1H27.5926L26.2226 12.5H24.3826L23.5526 8.84C23.4326 8.26 23.3226 7.69 23.2326 7.13H23.1926C23.0926 7.69 22.9926 8.26 22.8726 8.84L22.0626 12.5H20.2526Z" fill="white"/>
<defs>
<linearGradient id="paint0_linear_3960_49453" x1="2.30556e-07" y1="8.5" x2="33" y2="8.5" gradientUnits="userSpaceOnUse">
<stop stop-color="#FF7574"/>
<stop offset="1" stop-color="#FF916D"/>
</linearGradient>
</defs>
</svg>
