<svg width="16" height="16" viewBox="0 0 16 16" fill="none" xmlns="http://www.w3.org/2000/svg">
<g clip-path="url(#clip0_2864_26445)">
<path d="M7.97659 2.10536C8.08289 1.87 8.41711 1.87 8.52341 2.10536L10.1169 5.6335C10.2672 5.96629 10.5337 6.23282 10.8665 6.38312L13.9911 7.79432C14.3833 7.97148 14.3833 8.52852 13.9911 8.70568L10.8665 10.1169C10.5337 10.2672 10.2672 10.5337 10.1169 10.8665L8.52341 14.3946C8.41711 14.63 8.08289 14.63 7.97659 14.3946L6.38312 10.8665C6.23282 10.5337 5.96629 10.2672 5.6335 10.1169L2.10536 8.52341C1.87 8.41711 1.87 8.08289 2.10536 7.97659L5.6335 6.38312C5.96629 6.23282 6.23282 5.96629 6.38312 5.6335L7.97659 2.10536Z" stroke="#8350F2" stroke-width="1.5"/>
<path d="M2.13355 0.169245C2.24515 -0.0479519 2.55563 -0.0479521 2.66723 0.169245L3.28974 1.38082C3.31837 1.43655 3.36374 1.48192 3.41947 1.51056L4.63105 2.13306C4.84825 2.24466 4.84825 2.55515 4.63105 2.66674L3.41947 3.28925C3.36374 3.31788 3.31837 3.36325 3.28974 3.41899L2.66723 4.63056C2.55563 4.84776 2.24515 4.84776 2.13355 4.63056L1.51104 3.41899C1.48241 3.36325 1.43704 3.31788 1.38131 3.28925L0.169734 2.66674C-0.0474636 2.55515 -0.0474638 2.24466 0.169733 2.13306L1.38131 1.51056C1.43704 1.48192 1.48241 1.43655 1.51104 1.38082L2.13355 0.169245Z" fill="#8350F2"/>
</g>
<defs>
<clipPath id="clip0_2864_26445">
<rect width="16" height="16" fill="white"/>
</clipPath>
</defs>
</svg>
