<svg width="72" height="72" viewBox="0 0 72 72" fill="none" xmlns="http://www.w3.org/2000/svg">
<path fill-rule="evenodd" clip-rule="evenodd" d="M48.2693 62.8051H48.2491C48.2292 62.8051 48.2094 62.805 48.1895 62.8047C48.1857 62.8044 48.1818 62.8043 48.1778 62.8043L48.1895 62.8047C46.5113 62.7822 44.9014 61.8538 44.0855 60.2548C44.0846 60.2531 44.0838 60.2514 44.0829 60.2497L37.593 47.4925L42.845 37.1775L48.2589 47.8197L59.8071 25.1199L44.7302 25.1199C42.1472 25.1199 40.0533 23.0259 40.0533 20.4428V20.4272C40.0533 17.844 42.1472 15.75 44.7302 15.75H67.3183C69.9013 15.75 71.9952 17.844 71.9952 20.4272L71.9952 20.4593C72.0316 21.242 71.8714 22.0445 71.4908 22.7927L52.4355 60.2497L52.4329 60.2548C51.6188 61.8502 50.0144 62.778 48.3403 62.8045C48.3367 62.8043 48.3331 62.8044 48.3295 62.8045L48.3403 62.8045C48.3166 62.8049 48.293 62.8051 48.2693 62.8051Z" fill="url(#paint0_linear_2763_45232)"/>
<path opacity="0.8" fill-rule="evenodd" clip-rule="evenodd" d="M45.5339 15.75L64.8438 15.75L59.7577 25.1199H45.5339V15.75Z" fill="url(#paint1_linear_2763_45232)"/>
<path fill-rule="evenodd" clip-rule="evenodd" d="M53.6198 15.75C52.6984 15.7855 51.8318 16.048 51.0197 16.5375C50.2077 17.027 49.5096 17.8305 48.9253 18.948L48.9381 18.9237L27.9165 60.246C27.0891 61.8725 25.4435 62.8077 23.7377 62.8051C22.0318 62.8077 20.3862 61.8725 19.5588 60.246L0.510825 22.8035C0.0400796 21.8782 -0.0942749 20.8697 0.062403 19.918C0.319152 17.5738 2.30278 15.75 4.71173 15.75H29.092C31.0383 15.75 32.707 16.9406 33.4116 18.6343L34.4058 20.5888L29.1537 30.904L26.2112 25.1199H12.1888L23.7376 47.8212L38.5555 18.6936C39.4744 16.8875 41.3292 15.75 43.3556 15.75H53.6198Z" fill="url(#paint2_linear_2763_45232)"/>
<path fill-rule="evenodd" clip-rule="evenodd" d="M53.6197 15.75C52.6984 15.7855 51.8317 16.048 51.0197 16.5375C50.2402 17.0074 49.5656 17.7667 48.9959 18.8155L48.9332 18.9327L35.5266 45.2861L27.3999 40.6223L38.5555 18.6936C39.4743 16.8875 41.3292 15.75 43.3555 15.75H53.6197Z" fill="url(#paint3_linear_2763_45232)"/>
<defs>
<linearGradient id="paint0_linear_2763_45232" x1="54.7966" y1="15.75" x2="54.7966" y2="62.8051" gradientUnits="userSpaceOnUse">
<stop stop-color="#FF1C1F"/>
<stop offset="1" stop-color="#FF4A04"/>
</linearGradient>
<linearGradient id="paint1_linear_2763_45232" x1="48.6816" y1="19.6476" x2="59.7364" y2="25.1194" gradientUnits="userSpaceOnUse">
<stop stop-color="#BD0000"/>
<stop offset="0.770833" stop-color="#BD0000" stop-opacity="0"/>
</linearGradient>
<linearGradient id="paint2_linear_2763_45232" x1="26.8099" y1="15.75" x2="26.8099" y2="62.8051" gradientUnits="userSpaceOnUse">
<stop stop-color="#FF1C1F"/>
<stop offset="1" stop-color="#FF4A04"/>
</linearGradient>
<linearGradient id="paint3_linear_2763_45232" x1="40.5098" y1="15.75" x2="40.5098" y2="36.3012" gradientUnits="userSpaceOnUse">
<stop stop-color="#FF9825"/>
<stop offset="1" stop-color="#FF9825" stop-opacity="0"/>
</linearGradient>
</defs>
</svg>
